<svg width="327" height="327" viewBox="0 0 327 327" fill="none" xmlns="http://www.w3.org/2000/svg">
<path d="M159.315 214.1C104.091 206.01 41.6994 180.373 48.2656 117.504C54.23 60.4622 118.584 31.3919 169.301 66.2371C191.171 81.2791 195.187 107.642 219.986 119.662C244.786 131.683 280.808 132.657 280.933 168.876C281.09 224.976 195.658 219.423 159.315 214.1Z" fill="#8284FA"/>
<path opacity="0.9" d="M159.315 214.1C104.091 206.01 41.6994 180.373 48.2656 117.504C54.23 60.4622 118.584 31.3919 169.301 66.2371C191.171 81.2791 195.187 107.642 219.986 119.662C244.786 131.683 280.808 132.657 280.933 168.876C281.09 224.976 195.658 219.423 159.315 214.1Z" fill="white"/>
<path d="M163.5 279.624C233.532 279.624 290.304 276.31 290.304 272.221C290.304 268.132 233.532 264.818 163.5 264.818C93.4682 264.818 36.696 268.132 36.696 272.221C36.696 276.31 93.4682 279.624 163.5 279.624Z" fill="#F5F5F5"/>
<path d="M156.574 84.6994H264.256C264.794 84.6925 265.328 84.7977 265.824 85.0082C266.32 85.2188 266.766 85.5301 267.135 85.9225C267.504 86.3149 267.788 86.7797 267.968 87.2874C268.147 87.7952 268.22 88.3348 268.18 88.8719L259.396 230.352C259.312 231.476 258.81 232.528 257.989 233.301C257.169 234.074 256.089 234.513 254.962 234.531H147.275C146.737 234.532 146.205 234.423 145.712 234.21C145.218 233.997 144.774 233.685 144.406 233.293C144.038 232.901 143.754 232.438 143.573 231.932C143.391 231.426 143.316 230.888 143.351 230.352L152.127 88.8719C152.215 87.7473 152.72 86.6961 153.543 85.9242C154.365 85.1523 155.447 84.7155 156.574 84.6994Z" fill="#8284FA"/>
<path opacity="0.4" d="M156.574 84.6994H264.256C264.794 84.6925 265.328 84.7977 265.824 85.0082C266.32 85.2188 266.766 85.5301 267.135 85.9225C267.504 86.3149 267.788 86.7797 267.968 87.2874C268.147 87.7952 268.22 88.3348 268.18 88.8719L259.396 230.352C259.312 231.476 258.81 232.528 257.989 233.301C257.169 234.074 256.089 234.513 254.962 234.531H147.275C146.737 234.532 146.205 234.423 145.712 234.21C145.218 233.997 144.774 233.685 144.406 233.293C144.038 232.901 143.754 232.438 143.573 231.932C143.391 231.426 143.316 230.888 143.351 230.352L152.127 88.8719C152.215 87.7473 152.72 86.6961 153.543 85.9242C154.365 85.1523 155.447 84.7155 156.574 84.6994Z" fill="black"/>
<path d="M154.103 84.6994H261.784C262.322 84.6925 262.857 84.7977 263.352 85.0082C263.848 85.2188 264.295 85.5301 264.664 85.9225C265.033 86.3149 265.316 86.7797 265.496 87.2874C265.676 87.7952 265.748 88.3348 265.708 88.8719L256.925 230.352C256.84 231.477 256.337 232.53 255.515 233.303C254.694 234.076 253.612 234.514 252.484 234.531H144.803C144.265 234.532 143.733 234.423 143.24 234.21C142.746 233.997 142.302 233.685 141.934 233.293C141.566 232.901 141.283 232.438 141.101 231.932C140.92 231.426 140.844 230.888 140.879 230.352L149.656 88.8719C149.742 87.7468 150.246 86.6946 151.069 85.9225C151.892 85.1504 152.974 84.7141 154.103 84.6994Z" fill="#8284FA"/>
<path opacity="0.4" d="M146.719 226.892L251.536 228.148L260.038 91.1218H155.143L146.719 226.892Z" fill="black"/>
<path d="M143.658 225.506H249.829C255.675 171.937 257.474 143.017 258.272 89.4737H152.101C151.303 143.017 149.512 171.937 143.658 225.506Z" fill="white"/>
<path opacity="0.3" d="M245.571 126.712H227.292C227.108 126.715 226.925 126.678 226.756 126.605C226.587 126.531 226.435 126.423 226.311 126.287C226.185 126.153 226.087 125.994 226.024 125.821C225.961 125.648 225.934 125.464 225.945 125.28L227.076 107.007C227.098 106.664 227.249 106.342 227.499 106.107C227.749 105.871 228.08 105.74 228.423 105.739H246.735C246.919 105.739 247.101 105.777 247.27 105.851C247.439 105.924 247.591 106.031 247.717 106.165C247.843 106.299 247.941 106.457 248.003 106.63C248.066 106.803 248.093 106.987 248.082 107.171L246.944 125.45C246.939 125.624 246.898 125.794 246.826 125.952C246.753 126.11 246.65 126.252 246.522 126.369C246.394 126.487 246.245 126.578 246.081 126.636C245.918 126.695 245.744 126.721 245.571 126.712ZM228.731 124.018H244.302L245.251 108.44H229.692L228.731 124.018Z" fill="#8284FA"/>
<path opacity="0.3" d="M243.838 154.553H225.565C225.381 154.553 225.2 154.515 225.031 154.442C224.862 154.369 224.71 154.262 224.584 154.128C224.457 153.995 224.359 153.836 224.296 153.663C224.233 153.489 224.206 153.305 224.218 153.121L225.349 134.842C225.371 134.499 225.522 134.178 225.773 133.944C226.023 133.709 226.354 133.579 226.697 133.58H244.976C245.16 133.577 245.343 133.614 245.512 133.687C245.681 133.761 245.833 133.869 245.957 134.005C246.083 134.139 246.18 134.297 246.243 134.471C246.306 134.644 246.333 134.828 246.323 135.012L245.185 153.285C245.165 153.628 245.014 153.951 244.764 154.187C244.513 154.423 244.182 154.554 243.838 154.553ZM226.997 151.852H242.569L243.537 136.274H227.965L226.997 151.852Z" fill="#8284FA"/>
<path opacity="0.3" d="M242.112 182.387H223.839C223.654 182.388 223.471 182.351 223.301 182.278C223.131 182.205 222.978 182.097 222.851 181.962C222.724 181.829 222.626 181.671 222.564 181.497C222.502 181.324 222.477 181.139 222.492 180.955L223.623 162.682C223.645 162.339 223.796 162.018 224.046 161.782C224.296 161.546 224.627 161.415 224.97 161.414H243.25C243.434 161.414 243.615 161.452 243.784 161.525C243.953 161.598 244.105 161.705 244.231 161.839C244.356 161.974 244.453 162.132 244.516 162.305C244.579 162.478 244.606 162.662 244.597 162.846L243.459 181.158C243.43 181.494 243.275 181.808 243.025 182.035C242.776 182.263 242.45 182.389 242.112 182.387ZM225.271 179.693H240.843L241.811 164.115H226.239L225.271 179.693Z" fill="#8284FA"/>
<path opacity="0.3" d="M240.385 210.228H222.112C221.928 210.228 221.745 210.189 221.575 210.116C221.406 210.043 221.252 209.937 221.125 209.803C220.997 209.67 220.899 209.512 220.837 209.338C220.775 209.165 220.751 208.98 220.765 208.796L221.897 190.517C221.92 190.175 222.072 189.855 222.322 189.62C222.572 189.386 222.901 189.255 223.244 189.255H241.523C241.707 189.252 241.89 189.289 242.059 189.362C242.228 189.436 242.38 189.544 242.504 189.68C242.63 189.814 242.728 189.973 242.791 190.146C242.854 190.319 242.881 190.503 242.87 190.687L241.732 208.96C241.711 209.303 241.56 209.624 241.309 209.86C241.059 210.096 240.729 210.227 240.385 210.228ZM223.545 207.527H239.116L240.084 191.949H224.513L223.545 207.527Z" fill="#8284FA"/>
<path opacity="0.3" d="M169.962 113.835H211.353C211.97 113.826 212.56 113.586 213.009 113.164C213.458 112.742 213.733 112.167 213.78 111.553C213.802 111.259 213.762 110.964 213.664 110.686C213.566 110.409 213.411 110.155 213.209 109.94C213.007 109.725 212.763 109.555 212.492 109.44C212.221 109.324 211.929 109.267 211.635 109.27H170.25C169.632 109.277 169.04 109.515 168.591 109.938C168.142 110.361 167.867 110.937 167.823 111.553C167.801 111.846 167.841 112.14 167.939 112.418C168.037 112.695 168.191 112.949 168.392 113.163C168.593 113.378 168.836 113.548 169.106 113.664C169.377 113.779 169.668 113.838 169.962 113.835Z" fill="#8284FA"/>
<path opacity="0.3" d="M177.235 123.187H210.752C211.368 123.178 211.959 122.938 212.408 122.516C212.856 122.094 213.131 121.519 213.179 120.905C213.201 120.611 213.163 120.316 213.065 120.038C212.968 119.76 212.814 119.505 212.613 119.29C212.412 119.075 212.168 118.904 211.897 118.788C211.626 118.672 211.335 118.613 211.04 118.616H177.536C176.918 118.626 176.327 118.866 175.878 119.289C175.429 119.713 175.155 120.289 175.109 120.905C175.088 121.197 175.127 121.49 175.224 121.767C175.321 122.043 175.474 122.296 175.674 122.51C175.873 122.725 176.115 122.895 176.383 123.012C176.652 123.128 176.942 123.188 177.235 123.187Z" fill="#8284FA"/>
<path opacity="0.3" d="M167.941 146.457H209.333C209.627 146.454 209.918 146.513 210.189 146.628C210.459 146.744 210.702 146.914 210.903 147.129C211.104 147.343 211.258 147.597 211.356 147.874C211.454 148.152 211.493 148.446 211.472 148.739C211.424 149.354 211.149 149.928 210.701 150.35C210.252 150.773 209.661 151.012 209.045 151.022H167.654C167.36 151.024 167.068 150.966 166.798 150.85C166.528 150.735 166.285 150.564 166.084 150.35C165.883 150.135 165.728 149.881 165.631 149.604C165.533 149.327 165.493 149.032 165.515 148.739C165.562 148.125 165.837 147.55 166.286 147.128C166.735 146.706 167.325 146.466 167.941 146.457Z" fill="#8284FA"/>
<path opacity="0.3" d="M176.392 137.104H209.935C210.23 137.101 210.522 137.159 210.793 137.274C211.064 137.389 211.308 137.56 211.51 137.774C211.711 137.989 211.866 138.243 211.964 138.521C212.063 138.798 212.102 139.093 212.08 139.387C212.035 140.003 211.76 140.579 211.311 141.002C210.862 141.426 210.271 141.666 209.654 141.676H176.11C175.815 141.68 175.523 141.622 175.251 141.506C174.98 141.39 174.735 141.219 174.534 141.004C174.332 140.789 174.177 140.534 174.079 140.255C173.981 139.977 173.943 139.681 173.965 139.387C174.012 138.773 174.287 138.198 174.736 137.776C175.185 137.353 175.775 137.114 176.392 137.104Z" fill="#8284FA"/>
<path opacity="0.3" d="M166.509 169.51H207.901C208.517 169.501 209.107 169.261 209.556 168.839C210.005 168.417 210.28 167.842 210.327 167.228C210.349 166.934 210.309 166.639 210.211 166.361C210.113 166.084 209.958 165.83 209.756 165.615C209.554 165.4 209.31 165.23 209.039 165.115C208.768 164.999 208.476 164.942 208.182 164.945H166.771C166.154 164.955 165.564 165.194 165.115 165.616C164.666 166.039 164.391 166.613 164.344 167.228C164.322 167.523 164.362 167.82 164.462 168.099C164.561 168.378 164.718 168.633 164.922 168.848C165.126 169.063 165.372 169.233 165.645 169.347C165.919 169.461 166.213 169.516 166.509 169.51Z" fill="#8284FA"/>
<path opacity="0.3" d="M190.667 178.862H207.318C207.934 178.853 208.525 178.613 208.974 178.191C209.422 177.769 209.697 177.194 209.745 176.58C209.766 176.286 209.727 175.991 209.629 175.713C209.53 175.435 209.376 175.18 209.174 174.965C208.972 174.75 208.728 174.579 208.457 174.463C208.186 174.347 207.894 174.288 207.599 174.291H190.968C190.352 174.302 189.761 174.543 189.312 174.966C188.864 175.39 188.589 175.965 188.542 176.58C188.52 176.872 188.559 177.165 188.656 177.442C188.753 177.718 188.907 177.971 189.106 178.185C189.306 178.4 189.547 178.571 189.816 178.687C190.085 178.804 190.375 178.863 190.667 178.862Z" fill="#8284FA"/>
<path opacity="0.3" d="M173.801 178.862H182.585C183.201 178.853 183.791 178.613 184.24 178.191C184.689 177.769 184.964 177.194 185.011 176.58C185.033 176.286 184.993 175.991 184.895 175.713C184.797 175.435 184.642 175.18 184.44 174.965C184.239 174.75 183.995 174.579 183.724 174.463C183.453 174.347 183.161 174.288 182.866 174.291H174.083C173.466 174.302 172.875 174.543 172.427 174.966C171.978 175.39 171.703 175.965 171.656 176.58C171.634 176.874 171.674 177.169 171.772 177.446C171.87 177.724 172.025 177.978 172.227 178.193C172.429 178.407 172.673 178.578 172.944 178.693C173.215 178.808 173.507 178.866 173.801 178.862Z" fill="#8284FA"/>
<path opacity="0.3" d="M164.808 197.351H206.2C206.816 197.341 207.407 197.102 207.855 196.68C208.304 196.258 208.579 195.683 208.626 195.069C208.648 194.774 208.609 194.479 208.511 194.201C208.412 193.923 208.257 193.669 208.056 193.454C207.854 193.238 207.61 193.068 207.339 192.951C207.068 192.835 206.776 192.777 206.481 192.78H165.064C164.446 192.789 163.855 193.03 163.406 193.453C162.957 193.877 162.683 194.453 162.637 195.069C162.615 195.364 162.655 195.662 162.755 195.941C162.855 196.221 163.012 196.476 163.217 196.691C163.421 196.906 163.669 197.076 163.943 197.19C164.217 197.303 164.512 197.358 164.808 197.351Z" fill="#8284FA"/>
<path opacity="0.3" d="M172.074 206.703H205.592C206.208 206.692 206.799 206.451 207.248 206.028C207.696 205.605 207.971 205.029 208.018 204.414C208.04 204.12 208 203.825 207.902 203.548C207.804 203.27 207.649 203.016 207.447 202.801C207.246 202.587 207.001 202.416 206.73 202.301C206.459 202.186 206.167 202.128 205.873 202.132H172.355C171.739 202.141 171.149 202.381 170.7 202.803C170.251 203.225 169.976 203.8 169.929 204.414C169.907 204.708 169.947 205.004 170.045 205.281C170.143 205.559 170.298 205.814 170.5 206.029C170.701 206.244 170.945 206.415 171.216 206.531C171.487 206.647 171.779 206.706 172.074 206.703Z" fill="#8284FA"/>
<path d="M235.513 121.709C235.242 121.711 234.977 121.629 234.754 121.474L227.711 116.667C227.442 116.454 227.263 116.148 227.212 115.809C227.16 115.47 227.239 115.124 227.432 114.841C227.626 114.558 227.919 114.359 228.254 114.284C228.588 114.209 228.939 114.264 229.234 114.437L235.251 118.551C237.449 115.902 243.714 108.741 248.926 106.393C249.088 106.321 249.263 106.281 249.44 106.276C249.617 106.272 249.793 106.302 249.959 106.365C250.124 106.429 250.276 106.524 250.404 106.646C250.533 106.768 250.636 106.914 250.708 107.076C250.781 107.238 250.82 107.413 250.825 107.59C250.83 107.767 250.799 107.943 250.736 108.109C250.672 108.274 250.577 108.426 250.455 108.554C250.333 108.683 250.187 108.786 250.025 108.858C244.335 111.389 236.651 121.101 236.579 121.199C236.451 121.359 236.289 121.488 236.104 121.576C235.92 121.664 235.717 121.71 235.513 121.709Z" fill="#8284FA"/>
<path d="M232.236 149.007C231.886 149.008 231.549 148.875 231.294 148.634L225.166 142.748C224.906 142.5 224.755 142.157 224.747 141.798C224.739 141.438 224.875 141.089 225.124 140.829C225.373 140.569 225.715 140.418 226.075 140.41C226.435 140.402 226.783 140.538 227.043 140.786L232.275 145.816C234.858 143.507 242.085 137.359 247.553 135.868C247.724 135.822 247.904 135.809 248.08 135.832C248.257 135.854 248.427 135.911 248.582 135.999C248.736 136.088 248.872 136.206 248.981 136.347C249.09 136.487 249.17 136.648 249.217 136.82C249.264 136.992 249.276 137.171 249.254 137.348C249.231 137.524 249.174 137.695 249.086 137.849C248.998 138.004 248.88 138.139 248.739 138.248C248.598 138.357 248.437 138.438 248.265 138.484C242.301 140.113 233.269 148.576 233.178 148.661C233.051 148.778 232.903 148.868 232.741 148.928C232.58 148.987 232.408 149.014 232.236 149.007Z" fill="#8284FA"/>
<path opacity="0.4" d="M220.772 92.6914H222.734C223.26 92.6965 223.781 92.5981 224.269 92.4018C224.756 92.2054 225.2 91.9149 225.576 91.5469C225.951 91.1788 226.25 90.7405 226.456 90.2569C226.662 89.7732 226.771 89.2537 226.776 88.7281V85.0788C226.776 85.0259 226.765 84.9734 226.745 84.9246C226.724 84.8758 226.694 84.8315 226.657 84.7944C226.619 84.7572 226.574 84.728 226.525 84.7083C226.476 84.6887 226.423 84.679 226.37 84.6799H220.824C220.705 84.6816 220.591 84.7296 220.507 84.8139C220.423 84.8982 220.375 85.012 220.373 85.1311L220.399 92.2924C220.399 92.3938 220.437 92.4915 220.507 92.5657C220.576 92.6398 220.671 92.6847 220.772 92.6914Z" fill="black"/>
<path d="M190.675 78.081H224.068C224.545 78.0673 225.019 78.1598 225.456 78.3516C225.893 78.5435 226.282 78.8299 226.595 79.1903C226.907 79.5507 227.136 79.976 227.265 80.4356C227.393 80.8952 227.418 81.3776 227.338 81.848L226.337 89.284C226.175 90.3118 225.658 91.2506 224.877 91.9383C224.097 92.6261 223.1 93.0196 222.06 93.051H188.654C188.177 93.0646 187.703 92.9722 187.266 92.7804C186.829 92.5885 186.44 92.3021 186.127 91.9417C185.814 91.5813 185.585 91.156 185.457 90.6964C185.328 90.2368 185.303 89.7544 185.384 89.284L186.391 81.848C186.554 80.8191 187.071 79.8795 187.853 79.1916C188.635 78.5037 189.633 78.1109 190.675 78.081Z" fill="#8284FA"/>
<path opacity="0.6" d="M190.675 78.081H224.068C224.545 78.0673 225.019 78.1598 225.456 78.3516C225.893 78.5435 226.282 78.8299 226.595 79.1903C226.907 79.5507 227.136 79.976 227.265 80.4356C227.393 80.8952 227.418 81.3776 227.338 81.848L226.337 89.284C226.175 90.3118 225.658 91.2506 224.877 91.9383C224.097 92.6261 223.1 93.0196 222.06 93.051H188.654C188.177 93.0646 187.703 92.9722 187.266 92.7804C186.829 92.5885 186.44 92.3021 186.127 91.9417C185.814 91.5813 185.585 91.156 185.457 90.6964C185.328 90.2368 185.303 89.7544 185.384 89.284L186.391 81.848C186.554 80.8191 187.071 79.8795 187.853 79.1916C188.635 78.5037 189.633 78.1109 190.675 78.081Z" fill="white"/>
<path opacity="0.5" d="M223.205 81.678H208.163C208.023 81.6892 207.883 81.6714 207.751 81.6258C207.618 81.5801 207.497 81.5075 207.394 81.4126C207.291 81.3176 207.209 81.2024 207.153 81.0742C207.097 80.946 207.068 80.8075 207.068 80.6676C207.068 80.5276 207.097 80.3891 207.153 80.2609C207.209 80.1327 207.291 80.0175 207.394 79.9226C207.497 79.8276 207.618 79.7551 207.751 79.7094C207.883 79.6637 208.023 79.6459 208.163 79.6571H223.205C223.459 79.6776 223.696 79.7929 223.869 79.9801C224.041 80.1674 224.137 80.4128 224.137 80.6676C224.137 80.9223 224.041 81.1678 223.869 81.355C223.696 81.5422 223.459 81.6576 223.205 81.678Z" fill="white"/>
<path opacity="0.5" d="M203.16 81.678H201.577C201.437 81.6892 201.297 81.6714 201.165 81.6258C201.033 81.5801 200.911 81.5075 200.808 81.4126C200.705 81.3176 200.623 81.2024 200.567 81.0742C200.511 80.946 200.482 80.8075 200.482 80.6676C200.482 80.5276 200.511 80.3891 200.567 80.2609C200.623 80.1327 200.705 80.0175 200.808 79.9226C200.911 79.8276 201.033 79.7551 201.165 79.7094C201.297 79.6637 201.437 79.6459 201.577 79.6571H203.16C203.299 79.6459 203.44 79.6637 203.572 79.7094C203.704 79.7551 203.826 79.8276 203.928 79.9226C204.031 80.0175 204.113 80.1327 204.17 80.2609C204.226 80.3891 204.255 80.5276 204.255 80.6676C204.255 80.8075 204.226 80.946 204.17 81.0742C204.113 81.2024 204.031 81.3176 203.928 81.4126C203.826 81.5075 203.704 81.5801 203.572 81.6258C203.44 81.6714 203.299 81.6892 203.16 81.678Z" fill="white"/>
<path d="M110.827 226.709L117.282 227.945L132.54 156.188L123.063 154.377L110.827 226.709Z" fill="#8284FA"/>
<path d="M133.514 106.367L141.244 103.823L141.781 101.017L134.58 100.795L133.514 106.367Z" fill="#263238"/>
<path d="M133.318 104.732L142.121 101.867L133.076 153.376L123.6 151.571L133.318 104.732Z" fill="#8284FA"/>
<path d="M124.143 154.46L132.827 156.144L133.37 153.343L124.686 151.66L124.143 154.46Z" fill="#263238"/>
<path d="M111.991 235.205C111.906 235.63 112.083 236.022 112.383 236.081C112.684 236.14 112.998 235.839 113.077 235.427C113.155 235.015 112.979 234.609 112.678 234.551C112.377 234.492 112.07 234.786 111.991 235.205Z" fill="#8284FA"/>
<path d="M111.547 235.257L113.469 235.623L117.282 227.945L110.827 226.709L111.547 235.257Z" fill="#263238"/>
<path d="M123.174 138.53C123.038 138.53 122.904 138.495 122.784 138.429C122.664 138.363 122.563 138.268 122.49 138.153C122.416 138.038 122.373 137.906 122.363 137.77C122.354 137.633 122.379 137.497 122.435 137.373C126.49 128.681 129.78 110.526 130.225 106.21C130.288 105.583 130.518 104.986 130.891 104.479C131.263 103.971 131.765 103.573 132.344 103.325L134.482 102.403C134.58 102.36 134.685 102.337 134.792 102.335C134.899 102.333 135.005 102.352 135.105 102.39C135.205 102.429 135.296 102.487 135.373 102.561C135.45 102.635 135.512 102.724 135.555 102.822C135.598 102.92 135.621 103.025 135.623 103.132C135.625 103.239 135.606 103.345 135.568 103.445C135.529 103.544 135.471 103.635 135.397 103.713C135.323 103.79 135.234 103.851 135.136 103.894L132.998 104.817C132.685 104.952 132.414 105.168 132.213 105.443C132.012 105.718 131.888 106.041 131.853 106.38C131.389 110.912 128.125 129.06 123.927 138.059C123.86 138.202 123.753 138.322 123.62 138.406C123.487 138.489 123.332 138.532 123.174 138.53Z" fill="#263238"/>
<path d="M93.0445 103.849C91.4161 106.641 89.7745 109.604 88.2246 112.508C87.4594 113.973 86.7138 115.437 86.001 116.909C85.2881 118.38 84.621 119.865 84.039 121.343L83.9278 121.611C83.9043 121.654 83.8888 121.7 83.882 121.749C83.8449 121.964 83.8295 122.184 83.8362 122.403C83.8646 123.051 83.9566 123.695 84.1109 124.325C84.485 125.831 84.9658 127.309 85.5497 128.746C86.1318 130.251 86.7988 131.761 87.5117 133.279C88.2246 134.796 88.9505 136.313 89.6634 137.791L86.5569 139.91C84.2384 137.216 82.178 134.311 80.4027 131.232C79.4594 129.613 78.6606 127.915 78.0156 126.157C77.6572 125.155 77.3945 124.121 77.2308 123.07C77.143 122.435 77.1167 121.793 77.1523 121.153C77.1788 120.775 77.2313 120.399 77.3093 120.029C77.3485 119.839 77.4139 119.623 77.4728 119.42L77.5774 119.087C78.638 115.679 79.9496 112.354 81.5014 109.139C83.0222 105.952 84.7232 102.853 86.5961 99.8592L93.0445 103.849Z" fill="#FFC3BD"/>
<path d="M89.1732 136.849L92.0965 139.125L87.6363 142.814C87.6363 142.814 85.6023 140.852 85.9162 138.439L89.1732 136.849Z" fill="#FFC3BD"/>
<path d="M93.287 142.448L90.3113 146.274L87.6299 142.814L92.0967 139.125L93.287 142.448Z" fill="#FFC3BD"/>
<path d="M109.872 76.59C109.957 76.9824 110.232 77.244 110.487 77.244C110.742 77.244 110.892 76.8254 110.814 76.433C110.735 76.0406 110.454 75.779 110.199 75.8117C109.944 75.8444 109.82 76.191 109.872 76.59Z" fill="#263238"/>
<path d="M110.219 77.2701C110.939 78.3839 111.808 79.3939 112.802 80.2719C112.57 80.5206 112.286 80.7155 111.971 80.8432C111.656 80.9708 111.317 81.0281 110.977 81.011L110.219 77.2701Z" fill="#ED847E"/>
<path d="M108.002 74.6869C107.943 74.6848 107.887 74.6615 107.845 74.6215C107.822 74.6001 107.804 74.5742 107.791 74.5455C107.779 74.5169 107.772 74.4859 107.772 74.4547C107.772 74.4235 107.779 74.3925 107.791 74.3639C107.804 74.3352 107.822 74.3093 107.845 74.2879C108.091 74.0031 108.403 73.7827 108.755 73.646C109.106 73.5092 109.485 73.4602 109.859 73.5031C109.889 73.5083 109.919 73.5194 109.945 73.5358C109.971 73.5522 109.994 73.5737 110.012 73.5989C110.029 73.6241 110.042 73.6526 110.049 73.6827C110.056 73.7128 110.057 73.7441 110.052 73.7745C110.047 73.805 110.036 73.8342 110.019 73.8604C110.003 73.8866 109.981 73.9093 109.956 73.9272C109.931 73.9451 109.902 73.9579 109.872 73.9648C109.842 73.9717 109.811 73.9726 109.78 73.9675C109.483 73.9415 109.183 73.9874 108.906 74.1011C108.63 74.2149 108.385 74.3934 108.191 74.6215C108.166 74.6457 108.136 74.6641 108.104 74.6754C108.071 74.6867 108.036 74.6906 108.002 74.6869Z" fill="#263238"/>
<path d="M98.6168 82.1555C99.3362 85.8245 100.056 92.541 97.4919 94.987C97.4919 94.987 98.4926 98.7017 105.301 98.7017C112.789 98.7017 108.885 94.987 108.885 94.987C104.797 94.006 104.902 90.978 105.615 88.1265L98.6168 82.1555Z" fill="#FFC3BD"/>
<path d="M96.0403 95.2616C95.4974 93.9536 96.6943 90.0296 97.9042 89.6568C99.271 89.2383 104.444 89.4737 107.06 90.5528C108.898 92.4102 109.428 96.2622 109.428 96.2622L96.0403 95.2616Z" fill="#263238"/>
<path d="M74.6544 266.518C74.8555 266.59 75.0689 266.622 75.2823 266.61C75.4956 266.599 75.7046 266.546 75.897 266.453C75.973 266.386 76.0256 266.296 76.0468 266.198C76.068 266.099 76.0567 265.995 76.0147 265.903C75.9919 265.826 75.9526 265.754 75.8995 265.693C75.8465 265.632 75.7809 265.584 75.7073 265.55C75.0533 265.23 73.4772 265.864 73.4118 265.89C73.3906 265.898 73.3723 265.913 73.3594 265.931C73.3466 265.95 73.3397 265.972 73.3399 265.995C73.3395 266.018 73.3455 266.04 73.357 266.06C73.3685 266.079 73.3852 266.095 73.4053 266.106C73.8049 266.29 74.2239 266.428 74.6544 266.518ZM75.4654 265.72L75.6092 265.766C75.6516 265.785 75.6893 265.813 75.7198 265.848C75.7503 265.883 75.7728 265.924 75.7858 265.969C75.8512 266.185 75.7858 266.25 75.7466 266.27C75.4784 266.499 74.4778 266.27 73.7846 266.008C74.3162 265.788 74.8906 265.689 75.4654 265.72Z" fill="#8284FA"/>
<path d="M73.4312 266.119H73.4901C74.0591 265.956 75.269 265.092 75.282 264.523C75.284 264.435 75.2549 264.349 75.2 264.279C75.1451 264.21 75.0677 264.162 74.9812 264.144C74.8951 264.113 74.8034 264.101 74.7122 264.107C74.6209 264.114 74.5321 264.14 74.4515 264.183C73.7975 264.523 73.3593 265.916 73.3462 265.975C73.3352 265.993 73.3293 266.013 73.3293 266.034C73.3293 266.055 73.3352 266.075 73.3462 266.093L73.4312 266.119ZM74.8504 264.347H74.9027C75.0466 264.399 75.0466 264.471 75.0466 264.497C75.0466 264.837 74.2356 265.511 73.6536 265.805C73.8079 265.254 74.1246 264.761 74.5626 264.392C74.6507 264.345 74.7521 264.329 74.8504 264.347Z" fill="#8284FA"/>
<path d="M110.814 267.362C111.468 267.362 112.083 267.27 112.285 266.983C112.34 266.908 112.37 266.817 112.37 266.724C112.37 266.631 112.34 266.541 112.285 266.466C112.245 266.396 112.19 266.336 112.124 266.289C112.059 266.241 111.985 266.208 111.906 266.191C111.075 265.962 109.323 266.956 109.251 267.002C109.229 267.014 109.212 267.032 109.201 267.055C109.191 267.077 109.187 267.102 109.192 267.126C109.196 267.149 109.207 267.17 109.223 267.187C109.239 267.203 109.261 267.214 109.283 267.218C109.788 267.311 110.3 267.36 110.814 267.362ZM111.612 266.387C111.689 266.388 111.766 266.399 111.841 266.42C111.889 266.428 111.934 266.447 111.974 266.475C112.014 266.504 112.046 266.541 112.069 266.584C112.154 266.727 112.128 266.806 112.069 266.845C111.834 267.172 110.572 267.179 109.637 267.048C110.245 266.699 110.916 266.475 111.612 266.387Z" fill="#8284FA"/>
<path d="M109.303 267.224H109.349C109.957 266.956 111.154 265.871 111.062 265.302C111.062 265.171 110.945 265.007 110.618 264.975C110.5 264.96 110.382 264.971 110.269 265.006C110.156 265.041 110.052 265.099 109.964 265.177C109.31 265.701 109.192 267.048 109.185 267.107C109.182 267.127 109.184 267.147 109.193 267.166C109.201 267.184 109.214 267.2 109.231 267.211C109.252 267.225 109.278 267.229 109.303 267.224ZM110.526 265.19H110.598C110.807 265.19 110.82 265.295 110.827 265.321C110.886 265.661 110.068 266.511 109.453 266.884C109.507 266.315 109.736 265.776 110.107 265.341C110.225 265.243 110.373 265.19 110.526 265.19Z" fill="#8284FA"/>
<path d="M103.796 267.107H108.806L109.303 255.505H104.293L103.796 267.107Z" fill="#FFC3BD"/>
<path d="M67.6436 264.785L72.6728 265.844L76.224 255.04L71.1882 253.981L67.6436 264.785Z" fill="#FFC3BD"/>
<path d="M73.2478 265.354L67.7477 264.164C67.6506 264.142 67.5492 264.155 67.4601 264.199C67.3709 264.243 67.2994 264.316 67.2572 264.406L65.3475 268.552C65.3021 268.653 65.2802 268.763 65.2832 268.874C65.2863 268.985 65.3143 269.094 65.3652 269.193C65.4161 269.291 65.4886 269.377 65.5772 269.444C65.6659 269.511 65.7684 269.557 65.8773 269.579C67.8066 269.958 68.7614 270.05 71.1812 270.573C72.6658 270.893 76.0273 271.711 78.0809 272.155C80.1345 272.6 80.8473 270.625 80.0429 270.259C76.4524 268.617 74.9482 267.172 73.9803 265.825C73.8018 265.584 73.5413 265.416 73.2478 265.354Z" fill="#263238"/>
<path d="M108.773 266.525H103.332C103.233 266.525 103.137 266.559 103.06 266.621C102.983 266.682 102.929 266.768 102.907 266.865L101.919 271.318C101.893 271.426 101.892 271.538 101.916 271.646C101.941 271.754 101.989 271.855 102.059 271.941C102.129 272.027 102.217 272.096 102.318 272.142C102.418 272.189 102.528 272.211 102.639 272.208C104.601 272.175 107.465 272.064 109.944 272.064C112.841 272.064 111.716 272.221 115.117 272.221C117.177 272.221 117.733 270.141 116.883 269.952C112.959 269.095 113.397 269.003 110.009 266.917C109.644 266.67 109.215 266.534 108.773 266.525Z" fill="#263238"/>
<path d="M88.5189 96.138C83.8232 97.2106 79.958 109.218 79.958 109.218L89.3821 116.412C91.8234 113.81 93.5473 110.619 94.3852 107.151C96.0006 100.827 93.3192 95.0131 88.5189 96.138Z" fill="#263238"/>
<path opacity="0.2" d="M92.5473 104.934C89.9967 107.452 89.1661 112.05 88.9634 116.052L89.3819 116.373C91.8259 113.773 93.5502 110.581 94.385 107.112C94.4831 106.739 94.5616 106.36 94.6336 105.994L92.5473 104.934Z" fill="black"/>
<path d="M116.589 96.3734C116.589 96.3734 121.919 102.397 116.883 139.675H90.0689C89.8857 135.561 92.469 115.477 88.4993 96.1184C91.4626 95.5477 94.4599 95.1698 97.4721 94.987C101.266 94.7644 105.071 94.7644 108.865 94.987C111.472 95.2474 114.054 95.7109 116.589 96.3734Z" fill="#263238"/>
<path opacity="0.2" d="M109.303 255.505L109.048 261.489H104.032L104.287 255.505H109.303Z" fill="black"/>
<path opacity="0.2" d="M71.1879 253.981L76.2237 255.04L74.3859 260.612L69.3567 259.553L71.1879 253.981Z" fill="black"/>
<path d="M96.5242 78.4342C97.8322 83.2345 98.3162 86.1122 101.279 88.1069C105.739 91.1153 111.292 87.6687 111.462 82.574C111.619 77.996 109.5 70.9132 104.333 69.9453C103.198 69.7257 102.026 69.8001 100.928 70.1616C99.8294 70.523 98.8421 71.1595 98.0594 72.0103C97.2767 72.8612 96.7248 73.8981 96.4561 75.0225C96.1874 76.1469 96.2108 77.3214 96.5242 78.4342Z" fill="#FFC3BD"/>
<path d="M101.311 87.551H101.246C100.471 87.5553 99.7073 87.3748 99.0169 87.0245C98.3264 86.6741 97.7296 86.1641 97.2758 85.5367C95.7716 83.4373 93.6592 79.7946 93.4172 75.5894C95.3269 73.575 102.501 72.2474 105.699 72.9734C108.361 73.5816 107.975 81.1614 105.457 85.262C105.017 85.9638 104.405 86.5422 103.68 86.9426C102.955 87.343 102.14 87.5524 101.311 87.551Z" fill="#FFC3BD"/>
<path opacity="0.8" d="M101.311 87.551H101.246C100.471 87.5553 99.7073 87.3748 99.0169 87.0245C98.3264 86.6741 97.7296 86.1641 97.2758 85.5367C95.7716 83.4373 93.6592 79.7946 93.4172 75.5894C95.3269 73.575 102.501 72.2474 105.699 72.9734C108.361 73.5816 107.975 81.1614 105.457 85.262C105.017 85.9638 104.405 86.5422 103.68 86.9426C102.955 87.343 102.14 87.5524 101.311 87.551Z" fill="#263238"/>
<path d="M96.3277 77.2962C95.4704 77.2725 94.6395 76.9943 93.9407 76.497C93.242 75.9997 92.7069 75.3058 92.4037 74.5036C91.8347 72.8032 92.4364 69.2128 95.8568 69.1081C99.2772 69.0035 99.6304 67.0546 98.5774 66.6556C100.814 66.8191 100.108 68.3822 100.108 68.3822C100.703 68.3822 101.265 66.7799 104.686 66.9107C108.106 67.0415 109.774 66.309 109.336 65.5438C110.951 65.8708 110.5 67.8328 109.133 68.3626C109.133 68.3626 112.37 70.8151 113.135 69.4678C113.678 70.4488 112.606 71.626 108.518 71.0897C110.147 73.3722 106.288 72.8621 104.647 73.8954C103.005 74.9287 98.584 77.4597 96.3277 77.2962Z" fill="#263238"/>
<path d="M104.692 78.2118C105.022 79.4017 105.732 80.4512 106.713 81.2006C108.021 82.1685 108.989 81.2006 108.898 79.7356C108.819 78.4276 108.034 76.3021 106.602 75.9097C105.17 75.5173 104.32 76.7664 104.692 78.2118Z" fill="#FFC3BD"/>
<path d="M107.38 139.675C107.38 139.675 101.69 177.96 98.5707 192.302C95.1568 207.998 76.8252 259.972 76.8252 259.972L67.8589 258.01C67.8589 258.01 80.6773 215.657 83.5549 193.702C85.7589 176.835 90.0949 139.649 90.0949 139.649L107.38 139.675Z" fill="#263238"/>
<path d="M78.9771 256.983L77.3029 260.253L67.2117 258.068L68.0619 255.034L78.9771 256.983Z" fill="#8284FA"/>
<path opacity="0.3" d="M103.783 153.317C97.2107 154.625 97.8973 179.118 98.7018 191.727C100.592 182.813 103.371 165.665 105.242 153.494C104.789 153.274 104.276 153.212 103.783 153.317Z" fill="black"/>
<path d="M116.883 139.675C116.883 139.675 117.576 177.129 117.027 192.407C116.465 208.299 110.912 260.331 110.912 260.331H102.41C102.41 260.331 102.103 209.228 101.723 193.623C101.311 176.619 99.2578 139.675 99.2578 139.675H116.883Z" fill="#263238"/>
<path d="M112.547 256.95C112.586 256.95 112.063 260.469 112.063 260.469H101.743L101.462 257.329L112.547 256.95Z" fill="#8284FA"/>
<path d="M116.713 95.7129C118.021 96.2557 119.283 97.2302 119.662 100.467C120.029 103.574 119.322 130.8 118.472 139.492C118.46 139.79 118.342 140.074 118.14 140.294C117.937 140.513 117.663 140.653 117.367 140.688C112.011 140.917 95.4186 138.681 89.8204 139.662C89.1664 139.779 88.5974 139.06 88.6366 138.406C89.0748 129.937 88.4404 116.268 87.4071 107.59C86.7531 101.919 86.7531 95.9876 91.4815 94.9804C95.0001 94.2348 111.599 93.5808 116.713 95.7129Z" fill="#8284FA"/>
<path d="M118.786 103.234C119.087 104.673 119.44 106.236 119.767 107.727C120.094 109.218 120.5 110.729 120.918 112.2C121.337 113.672 121.769 115.117 122.266 116.497C122.712 117.806 123.272 119.073 123.94 120.284C124.183 120.749 124.475 121.187 124.81 121.592C124.934 121.729 125.032 121.821 125.058 121.847C125.084 121.873 125.058 121.906 125.182 121.945C125.604 122.084 126.048 122.142 126.49 122.115C127.148 122.086 127.804 122.016 128.452 121.906C131.405 121.284 134.305 120.431 137.125 119.355L139.028 122.625C136.325 124.795 133.297 126.525 130.055 127.752C129.15 128.085 128.218 128.336 127.269 128.504C126.121 128.721 124.944 128.739 123.789 128.557C123.047 128.431 122.33 128.188 121.664 127.837C121.064 127.502 120.506 127.096 120.003 126.627C119.205 125.882 118.5 125.043 117.903 124.129C116.056 121.092 114.624 117.822 113.646 114.404C113.155 112.789 112.704 111.173 112.338 109.545C111.972 107.917 111.605 106.334 111.324 104.601L118.786 103.234Z" fill="#FFC3BD"/>
<path d="M107.766 101.272C103.698 109.453 113.364 118.701 113.364 118.701L124.142 113.077C123.39 108.741 122.155 104.503 120.46 100.441C117.321 93.4566 110.107 96.5696 107.766 101.272Z" fill="#263238"/>
<path d="M136.124 119.813L139.78 117.406L141.297 122.874C141.297 122.874 139.662 124.79 136.667 122.704L136.124 119.813Z" fill="#FFC3BD"/>
<path d="M142.965 119.616L142.847 120.768C142.788 121.32 142.521 121.829 142.101 122.193L141.297 122.847L139.78 117.38L140.244 117.262C140.587 117.173 140.946 117.169 141.291 117.249C141.635 117.33 141.955 117.493 142.223 117.724C142.491 117.956 142.698 118.249 142.827 118.579C142.957 118.909 143.004 119.265 142.965 119.616Z" fill="#FFC3BD"/>
</svg>
